<?xml version="1.0" encoding="UTF-8"?>
<svg version="1.1" xmlns="http://www.w3.org/2000/svg" width="500" height="500">
<path d="M0 0 C2.35373633 0.00317775 4.70623011 -0.02049925 7.05981445 -0.0456543 C29.70653077 -0.1389805 53.4103645 5.20840165 70.56567383 20.87036133 C71.78833008 22.31567383 71.78833008 22.31567383 71.78833008 24.31567383 C72.44833008 24.31567383 73.10833008 24.31567383 73.78833008 24.31567383 C75.3258343 26.24284022 76.72428327 28.15240171 78.10083008 30.19067383 C78.50382324 30.78565674 78.90681641 31.38063965 79.32202148 31.99365234 C90.81621737 49.23031701 92.74637432 67.52413044 90.16333008 87.81567383 C87.2745436 101.80761924 78.17939748 112.89035472 66.85083008 121.19067383 C45.071397 135.29936318 20.65865369 139.69553062 -4.88378906 139.63134766 C-7.53841132 139.62815671 -10.19194748 139.65186059 -12.84643555 139.67700195 C-23.89563235 139.71826885 -34.25630422 139.6213669 -43.21166992 132.31567383 C-43.21166992 131.65567383 -43.21166992 130.99567383 -43.21166992 130.31567383 C-43.87166992 130.31567383 -44.53166992 130.31567383 -45.21166992 130.31567383 C-53.14473301 114.11648012 -54.85989448 97.68824331 -49.21166992 80.31567383 C-45.5429923 70.01515589 -40.33555587 61.29329062 -34.21166992 52.31567383 C-33.55166992 51.32567383 -32.89166992 50.33567383 -32.21166992 49.31567383 C-29.58666992 49.12817383 -29.58666992 49.12817383 -27.21166992 49.31567383 C-24.9668635 54.92768989 -23.37818418 60.38703665 -22.21166992 66.31567383 C-12.10861815 69.4263159 5.82519829 73.94861215 15.66333008 68.81567383 C18.54378744 65.42690046 21.19600273 61.92803976 23.78833008 58.31567383 C24.91005677 56.81322442 26.0349345 55.31312113 27.16333008 53.81567383 C27.91743164 52.81020508 27.91743164 52.81020508 28.68676758 51.78442383 C29.0502832 51.29973633 29.41379883 50.81504883 29.78833008 50.31567383 C31.66333008 50.62817383 31.66333008 50.62817383 33.78833008 51.31567383 C35.84469095 54.40021513 36.29967362 56.16377057 36.91333008 59.75317383 C37.0809082 60.70063477 37.24848633 61.6480957 37.42114258 62.62426758 C37.78833008 65.31567383 37.78833008 65.31567383 37.78833008 69.31567383 C39.10833008 68.98567383 40.42833008 68.65567383 41.78833008 68.31567383 C42.56220507 53.29814586 42.56220507 53.29814586 36.84301758 39.94458008 C34.88250125 38.04388263 34.88250125 38.04388263 32.16333008 38.31567383 C29.666994 39.10390067 29.666994 39.10390067 28.53833008 41.25317383 C28.16708008 42.27411133 28.16708008 42.27411133 27.78833008 43.31567383 C27.29333008 44.30567383 27.29333008 44.30567383 26.78833008 45.31567383 C26.12833008 45.31567383 25.46833008 45.31567383 24.78833008 45.31567383 C24.56145508 46.00145508 24.33458008 46.68723633 24.10083008 47.39379883 C22.45799205 51.05106919 20.25612794 53.92804512 17.78833008 57.06567383 C17.3371582 57.65477539 16.88598633 58.24387695 16.42114258 58.85083008 C13.05583478 63.18192148 13.05583478 63.18192148 10.78833008 64.31567383 C-10.17179787 65.42974738 -10.17179787 65.42974738 -18.21166992 59.31567383 C-19.06713867 56.74926758 -19.06713867 56.74926758 -19.39916992 53.75317383 C-19.60219727 52.16569336 -19.60219727 52.16569336 -19.80932617 50.54614258 C-20.00848633 48.94706055 -20.00848633 48.94706055 -20.21166992 47.31567383 C-20.56782661 45.39541642 -20.94106999 43.47819489 -21.33666992 41.56567383 C-21.58803711 40.3359082 -21.58803711 40.3359082 -21.84448242 39.08129883 C-21.9656543 38.49864258 -22.08682617 37.91598633 -22.21166992 37.31567383 C-24.01756055 36.55568226 -24.01756055 36.55568226 -26.21166992 36.31567383 C-43.01128714 45.77428184 -51.30585926 70.89040573 -56.21166992 88.31567383 C-59.09828534 99.31673811 -57.74928902 108.31617027 -54.27416992 119.00317383 C-50.82333554 130.39490078 -49.81776118 141.47656798 -49.21166992 153.31567383 C-49.06591986 155.66854357 -48.9200837 158.02140798 -48.77416992 160.37426758 C-48.64603308 162.72956777 -48.52097067 165.08503748 -48.39916992 167.44067383 C-48.33366943 168.54950928 -48.26816895 169.65834473 -48.20068359 170.80078125 C-48.15661377 171.83952393 -48.11254395 172.8782666 -48.06713867 173.94848633 C-47.99982544 175.32351318 -47.99982544 175.32351318 -47.93115234 176.72631836 C-48.27832764 179.93096694 -49.33143467 181.72176655 -51.21166992 184.31567383 C-55.55398367 187.38706648 -59.6134564 187.89784624 -64.80541992 187.73364258 C-68.87695845 187.02641105 -70.47628464 185.39298227 -73.21166992 182.31567383 C-75.83549303 177.48185402 -75.81040428 172.18359622 -76.17651367 166.80786133 C-76.25444656 165.75439011 -76.33237946 164.70091888 -76.41267395 163.61552429 C-76.66688864 160.14114093 -76.90859796 156.66602666 -77.14916992 153.19067383 C-77.32179136 150.76739896 -77.49464598 148.34414069 -77.66772461 145.92089844 C-78.77097507 130.32039782 -79.80852481 114.71481606 -80.76394653 99.10455322 C-80.89339561 96.9922496 -81.02473144 94.88006056 -81.15817261 92.76800537 C-81.84156948 81.85758808 -82.33670778 70.96355106 -82.41479492 60.03051758 C-82.42685974 59.11645645 -82.43892456 58.20239532 -82.45135498 57.26063538 C-82.44886879 41.73608578 -78.45232039 28.91259034 -67.59057617 17.63208008 C-60.40850733 11.00115321 -51.87354192 7.24042946 -42.58666992 4.56567383 C-41.914021 4.36707764 -41.24137207 4.16848145 -40.54833984 3.96386719 C-27.37162829 0.43020215 -13.56545333 -0.03810917 0 0 Z M-30.96166992 88.56567383 C-33.29338498 90.11955769 -33.29338498 90.11955769 -34.21166992 92.31567383 C-34.59670368 95.85798444 -34.63102951 97.67824725 -32.64916992 100.69067383 C-29.39484489 102.86022385 -27.04036579 102.61018889 -23.21166992 102.31567383 C-21.90119836 99.88887464 -20.87309837 97.9560962 -20.21166992 95.31567383 C-21.34249088 91.56982939 -22.31546203 89.90528429 -25.58666992 87.75317383 C-28.30450087 87.04936948 -28.30450087 87.04936948 -30.96166992 88.56567383 Z M11.47583008 95.06567383 C9.22466674 97.89885261 9.22466674 97.89885261 8.78833008 101.31567383 C11.08804198 104.29177158 12.61891472 106.0589729 16.35083008 106.87817383 C19.68417906 106.10893945 20.84035441 105.12941645 22.78833008 102.31567383 C23.37202451 98.73105527 23.37202451 98.73105527 22.78833008 95.31567383 C18.69892497 92.58940376 15.54125748 91.98913417 11.47583008 95.06567383 Z " fill="#F3F3F3" transform="translate(242.211669921875,170.684326171875)"/>
<path d="M0 0 C0 4.364835 -2.03966518 6.76107748 -4.65625 10.13671875 C-7.92707989 12.73702851 -10.10977252 12.46572212 -14.25 12.375 C-15.29160278 12.35348877 -15.29160278 12.35348877 -16.35424805 12.33154297 C-36.41548183 11.72301212 -36.41548183 11.72301212 -42 8 C-40.69546875 8.144375 -39.3909375 8.28875 -38.046875 8.4375 C-22.13081439 11.24998408 -22.13081439 11.24998408 -7.0625 8.375 C-6.381875 7.59125 -5.70125 6.8075 -5 6 C-4.53851563 5.47148437 -4.07703125 4.94296875 -3.6015625 4.3984375 C-2.36778441 2.9601658 -1.17965076 1.48298953 0 0 Z " fill="#575757" transform="translate(265,231)"/>
<path d="M0 0 C0 4.54960762 -2.12127294 7.07105996 -5.1875 10.3125 C-6.0846875 11.1478125 -6.0846875 11.1478125 -7 12 C-7 7.41765954 -6.4819242 6.94491878 -3.5 3.75 C-2.8503125 3.04359375 -2.200625 2.3371875 -1.53125 1.609375 C-0.77328125 0.81273437 -0.77328125 0.81273437 0 0 Z " fill="#999999" transform="translate(265,231)"/>
<path d="M0 0 C1.1446875 0.12375 1.1446875 0.12375 2.3125 0.25 C0.2156084 4.4437832 -3.37429932 7.49277009 -7.6875 9.25 C-4.49832888 0.4184492 -4.49832888 0.4184492 0 0 Z " fill="#828282" transform="translate(212.6875,219.75)"/>
</svg>
